# xmcd CD database file generated by OrangeCD 6.3
#
# Track frame offsets:
#	182
#	13220
#	26977
#	41725
#	55352
#	69065
#	80930
#	94252
#	109140
#	121680
#	134155
#	145832
#	159800
#	173725
#	181970
#
# Disc length: 2581 seconds
#
# Revision: 3
# Processed by: cddbd v1.5.2PL0 Copyright (c) Steve Scherf et al.
# Submitted via: OrangeCD 6.3
#
DISCID=d10a130f
DTITLE=Big Joe Turner - Roll 'Em
DYEAR=1995
DGENRE=Boogie Woogie
TTITLE0=Roll 'Em Pete
TTITLE1=Baby, Look At You
TTITLE2=Lovin' Mama Blues
TTITLE3=Cafe' Society Rag
TTITLE4=Shake It And Break It
TTITLE5=Goin' Away Blues
TTITLE6=Cherry Red
TTITLE7=How Long, How Long Blues
TTITLE8=Low Down Dirty Shame Blues
TTITLE9=Joe Turner Blues
TTITLE10=Beale Street Blues
TTITLE11=I Got A Gal (For Every Day In The Week)
TTITLE12=It's The Same Old Story
TTITLE13=Around The Clock Blues
TTITLE14=Married Woman
EXTD=
EXTT0=
EXTT1=
EXTT2=
EXTT3=
EXTT4=
EXTT5=
EXTT6=
EXTT7=
EXTT8=
EXTT9=
EXTT10=
EXTT11=
EXTT12=
EXTT13=
EXTT14=
PLAYORDER=
